Patient4_TMGait_0pt3_01_right_28_EMG.mot
version=1
nRows=30
nColumns=33
inDegrees=no
endheader
time	1LAddLong	2LGlutMax	3LGlutMed	4LIliopsoas	5LSemiMemb	6LBicFemLong	7LRecFem	8LVastMed	9LVastLat	10LGasMed	11LTibAnt	12lTibPost	13LPeroneusLong	14LSol	15LExtDigLong	16LFlexDigLong	17RAddLong	18RGlutMax	19RGlutMed	20RIliopsoas	21RSemiMemb	22RBicFemLong	23RRecFem	24RVastMed	25RVastLat	26RGasMed	27RTibAnt	28RTibPost	29RPeroneusLong	30RSol	31RExtDigLong	32RFlexDigLong
53.245	-0.004425	0.12955	0.079651	0.01358	0.003815	-0.029602	-0.022278	0.032959	-0.27817	-0.024109	-0.001068	-0.013428	-0.027618	0.005493	0.079803	0.001373	-0.019836	-0.021515	0.079498	-0.047607	0.052948	0.026093	-0.34698	-0.23666	-0.18143	0.002289	-0.27054	-0.002289	-0.13275	0.12787	-0.006714	-0.011902
53.246	-0.00473	0.12024	0.015564	0.012512	0.012207	-0.006409	0.006256	0.0177	-0.16541	-0.05188	0.1088	-0.011902	-0.005341	0.022278	0.23911	0.000153	-0.018005	0.072479	0.008698	0.003815	0.050964	0.010529	-0.62256	-0.26764	-0.0177	0.024109	-1.0861	-0.002747	-0.2385	-0.045471	-0.005341	-0.007324
53.247	-0.008545	0.068207	-0.03067	0.00946	0.079041	0.05249	-0.058594	0.02594	-0.13397	-0.058594	0.15045	-0.010071	-0.007019	0.023804	0.29892	-0.003052	-0.018616	0.05249	0.03891	0.044098	0.036163	0.005798	-0.71503	-0.16312	0.11353	0.002441	-0.59982	-0.002136	0.1561	-0.041962	-0.002136	-0.020447
53.248	0.004272	0.03418	0.053406	0.014648	0.055084	0.15305	-0.098724	0.016632	-0.16083	-0.023193	0.07782	-0.016937	-0.032959	0.023804	0.27954	-0.020905	-0.014954	0.039978	0.12116	0.026703	0.04364	0.029907	-0.50232	-0.13718	0.0354	-0.007782	0.00473	-0.002289	-0.056458	-0.053711	-0.01236	-0.025635
53.249	0.021057	0.034485	-0.075989	0.030212	0.063629	0.14679	-0.11276	0.007935	-0.13977	0.000458	-0.024414	-0.008087	-0.077515	0.011444	-0.039215	-0.015717	-0.001221	0.023956	0.075989	-0.008698	0.034943	-0.018921	-0.26169	-0.16464	0.011597	-0.005341	0.47089	-0.002136	-0.014954	-0.10239	0.005188	-0.023499
53.25	0.04425	0.029755	-0.18906	0.028381	0.030518	0.044861	-0.15976	-0.02655	-0.083466	-0.01709	0.046997	-0.005035	-0.086212	0.028839	-0.1207	-0.017242	-0.004272	-0.004272	0.005188	0.004578	0.029144	-0.007935	-0.40009	-0.013733	0.061951	-0.013885	1.3805	-0.00351	-0.38895	0.046997	-0.000916	-0.024872
53.251	0.057068	0.051422	-0.094757	0.011444	0.039368	0.00473	-0.16693	-0.028381	-0.0177	0.036926	0.07843	-0.011902	-0.075836	0.02182	0.02594	-0.04364	-0.012512	0.022736	0.01358	-0.003662	0.046997	0.030212	-0.57007	0.1236	0.17059	-0.015717	1.2857	-0.003815	-0.26352	0.18723	0.002594	-0.032043
53.252	0.048676	0.016937	0.16525	-0.004578	0.05661	-0.000153	-0.28641	-0.024719	0.088806	-0.021515	0.044708	0	-0.045471	0.009155	-0.050354	-0.029449	-0.016327	-0.021362	0.019226	-0.022888	0.039063	0.017242	-0.4953	0.21622	0.16007	0.001831	0.49988	-0.001068	0.59097	0.052185	-0.001678	-0.033264
53.253	0.050201	0.011749	0.22842	-0.015717	0.050049	0.040131	-0.24338	-0.014496	0.11658	-0.022278	-0.041504	-0.006256	0.010681	0.039978	-0.019989	-0.11581	-0.005646	-0.009918	0.036316	-0.055084	0.030365	-0.016785	-0.30807	0.21606	-0.075378	0.019531	-1.1533	-0.002899	1.3736	-0.12695	0.000916	-0.018158
53.254	0.041504	0.030823	0.065002	0.001221	0.06424	0.020752	-0.14145	-0.033875	0.15701	-0.00824	-0.1619	0.002899	0.019836	0.044861	0.19577	-1.114	0.001984	-0.069427	0.094757	-0.083466	0.02533	-0.019226	-0.22919	0.1091	-0.10803	0.016174	-1.51	-0.003052	0.96847	-0.18143	0.000305	-0.019226
53.255	0.030975	0.063629	-0.046234	0.001373	0.022583	-0.03479	-0.082855	-0.023346	0.12695	0.006256	-0.084991	0.002136	-0.041656	0.073547	0.28366	0.94482	0.015717	-0.066071	0.11368	-0.12711	0.019226	-0.016022	-0.19424	0.013885	-0.041046	-0.000153	-1.2773	0.00351	0.27588	-0.19134	-0.001678	-0.018005
53.256	0.00351	0.088806	-0.005646	0.004883	-0.033264	-0.020142	0.053558	0.023956	0.11536	0.021515	-0.013275	0.008545	-0.089111	-0.009155	-0.083466	0.50369	0.017395	-0.032043	0.14847	-0.077667	0.001984	-0.019226	-0.19241	-0.077515	0.027313	0.002747	-0.59723	-0.003204	-0.058289	-0.15839	-0.001984	-0.021362
53.257	-0.003052	0.098877	-0.004578	0.008545	-0.069733	0.032196	0.092163	0.039368	0.060577	0.030518	0.084381	0.016632	-0.15595	0.007324	0.12466	-0.10147	0.001373	-0.08255	0.10757	-0.045776	0.015717	-0.011444	-0.17471	-0.17777	0.015411	-0.004578	-0.40619	-0.007019	-0.23941	0.11337	0	-0.027008
53.258	-0.005188	0.12421	0.075989	0.003204	-0.058594	0.030365	0.075226	0.018921	-0.045013	0.031128	0.088806	0.023651	-0.1268	-0.027771	0.62775	-0.088348	0.015259	-0.061646	0.037689	-0.013275	0.006561	0.004425	-0.041199	-0.18646	0.029449	-0.013123	0.1149	-0.009308	-0.63889	0.31708	0.003052	-0.016174
53.259	-0.007172	0.11414	-0.098419	0.016785	-0.051727	0.056305	0.089111	0.000763	-0.092773	0.048523	0.031433	0.013275	-0.12222	-0.060425	0.16968	0.31586	0.036163	-0.10346	0.039368	0.082703	0.010376	-0.019989	0.073242	-0.23438	0.024414	-0.001831	0.59952	-0.004425	-0.39475	0.29053	-0.006714	-0.020905
53.26	0.002289	0.10284	-0.15152	0.016022	-0.053711	0.09491	0.10361	-0.024872	-0.10483	0.032654	-0.00412	0.031738	-0.063782	-0.020599	-0.10437	-0.063171	0.024567	-0.11429	0.067291	0.17654	0.014191	0.00885	0.10925	-0.18524	0.010986	-0.02121	0.32211	-0.004578	-0.19104	0.20691	-0.001526	-0.020447
53.261	0.008087	0.11383	-0.15823	0.017395	-0.055542	0.13809	0.066833	-0.027771	-0.076294	-0.023651	-0.023041	0.027161	0.085754	-0.018311	-0.38376	-0.016479	0.019379	-0.12375	0.09903	0.20752	0.014954	0.009155	0.17471	-0.15335	0.004425	-0.006256	-0.48019	-0.003204	-0.067596	0.12528	-0.000916	-0.014343
53.262	0.007019	0.159	-0.16647	0.009613	-0.11047	0.10391	-0.000916	-0.014648	0.015717	-0.048981	-0.027008	0.024872	0.066681	-0.011292	-0.24078	-0.035248	0.016174	-0.11185	0.12543	0.19257	0.016479	0.014954	0.14496	0.013123	0.058441	-0.005646	-1.0538	-0.007324	0.11414	0.21042	-0.000153	-0.010834
53.263	0.011444	0.19898	-0.13031	0.018616	0.017395	0.093994	-0.15549	0.032196	0.07782	-0.019073	-0.21118	0.023651	-0.026093	0.063171	-0.47745	-0.060577	-0.007477	-0.075073	0.014343	0.1648	0.017548	0.005798	-0.17395	-0.032196	0.079956	-0.013275	0.10483	-0.004425	-0.027161	0.014496	0.000763	-0.015411
53.264	-0.000916	0.21423	0.035706	0.014648	0.098419	0.1294	-0.24765	0.053864	0.11856	0.024414	-0.11627	0.012665	-0.048218	0.045624	-0.26306	-0.071564	-0.019226	-0.087433	0.015717	0.06546	0.021973	0.035706	-0.33264	-0.081635	-0.006561	-0.005493	1.4003	-0.010071	0.23453	-0.15732	-0.001526	-0.007629
53.265	-0.02243	0.17258	0.064392	0.016174	0.043793	0.18387	-0.19028	0.026703	0.06012	0.06134	-0.082092	0.019836	-0.081177	-0.025635	0.030518	-0.061951	-0.011444	-0.094299	0.11032	0.034485	0.014343	0.026093	-0.41611	-0.18951	0.044708	0.015869	0.89218	-0.005493	0.55878	-0.27756	-0.003662	-0.002594
53.266	-0.017242	0.16205	0.17731	0.010834	-0.005188	0.20279	-0.060883	-0.000153	0.10376	0.04837	-0.081177	0.014343	-0.048065	-0.077362	0.10651	-0.072784	-0.002289	-0.13779	0.062408	0.009766	0.006409	0.026245	-0.21011	-0.024872	-0.019073	0.012512	0.58975	-0.002594	-0.000763	-0.10819	-0.000458	0.000458
53.267	-0.039215	0.19379	0.034485	0.015869	-0.026855	0.23468	0.029449	-0.014648	0.11307	0.009155	-0.029907	0.01297	0.03479	-0.050049	-0.31616	-0.09201	0.000305	-0.12619	0.051575	-0.031891	0.007782	0.02655	-0.17105	-0.023346	-0.095978	0.012054	-0.15289	-0.004883	-0.54489	-0.054932	-0.000916	0
53.268	-0.049133	0.19119	0.007935	0.007477	-0.050964	0.25238	0.031281	-0.010376	0.26032	0.011749	-0.024872	0.014038	0.083313	-0.010376	0.06958	-0.08667	0.002441	-0.071106	0.092468	-0.008087	0.002136	0.042419	-0.26688	-0.15167	-0.07309	-0.011597	-0.13687	0.001526	-0.97534	-0.039978	-0.002136	-0.006409
53.269	-0.048523	0.19196	0.034027	0.009308	-0.027313	0.19974	0.075073	0.009003	0.29633	0.035553	-0.099182	0.007782	0.076447	-0.074921	-0.043793	-0.10178	-0.018463	-0.046387	0.078278	-0.00946	0.007019	0.0354	-0.55328	-0.070801	0.11444	-0.014496	-0.25559	-0.011292	-0.53802	0.088348	-0.001373	-0.018768
53.27	-0.027618	0.24277	-0.068054	0.016479	-0.01358	0.23804	0.13046	-0.051727	0.2243	0.044098	-0.049438	0.005188	0.05127	-0.11719	0.30365	-0.12222	-0.012665	-0.030212	0.008087	0.046387	0.02243	0.037537	-0.60974	0.038452	0.21759	-0.007019	0.023041	-0.003815	-0.52811	0.19257	-0.000916	-0.012817
53.271	-0.014343	0.22919	-0.080261	0.005951	-0.07843	0.35721	0.22415	0.021973	0.07019	0.061798	0.15427	-0.001984	0.027924	-0.06897	0.1178	-0.12512	-0.005493	-0.098724	0.053558	0.033722	0.011292	0.025787	-0.33539	0.020752	0.16388	-0.017548	0.24017	-0.010681	-0.41046	0.15991	-0.005188	-0.014038
53.272	-0.00473	0.21622	-0.04776	0.013428	-0.015564	0.37827	0.24246	0.002136	-0.02655	0.045166	-0.026398	-0.013123	0.070038	0.047607	-0.019226	-0.13321	0.014954	-0.093384	0.071106	0	0.004272	0.000305	-0.17288	-0.11597	0.093842	-0.015411	0.16632	-0.007629	0.10666	0.15182	-0.003052	-0.01709
53.273	0.023804	0.19196	-0.066833	-0.001373	0.084686	0.24979	0.18921	0.002747	-0.15503	0.011902	-0.29587	-0.00351	0.093079	0.09079	-0.34653	-0.13123	0.001526	-0.11719	0.010986	0.014191	0.003815	0.005798	-0.13504	-0.065613	0.099945	-0.018158	-0.29266	-0.008392	0.52978	0.30212	-0.001831	-0.011444
53.274	0.026398	0.17548	-0.03006	0.02594	0.027771	0.046844	0.086975	0.018463	-0.22339	-0.000458	-0.26199	-0.015411	0.10147	0.14038	0.30045	-0.1207	0.007477	-0.19669	-0.026093	-0.035553	0.002747	0.001068	-0.052338	-0.045929	0.10361	-0.02594	0.25787	-0.003662	0.47333	0.24628	0	-0.012817
